<svg id="visual" viewBox="0 0 960 300" width="960" height="300" xmlns="http://www.w3.org/2000/svg" xmlns:xlink="http://www.w3.org/1999/xlink" version="1.1"><rect x="0" y="0" width="960" height="300" fill="#001220"></rect><path d="M0 106L22.8 108.2C45.7 110.3 91.3 114.7 137 110.2C182.7 105.7 228.3 92.3 274 88.5C319.7 84.7 365.3 90.3 411.2 95.5C457 100.7 503 105.3 548.8 104.3C594.7 103.3 640.3 96.7 686 92.5C731.7 88.3 777.3 86.7 823 88.7C868.7 90.7 914.3 96.3 937.2 99.2L960 102L960 0L937.2 0C914.3 0 868.7 0 823 0C777.3 0 731.7 0 686 0C640.3 0 594.7 0 548.8 0C503 0 457 0 411.2 0C365.3 0 319.7 0 274 0C228.3 0 182.7 0 137 0C91.3 0 45.7 0 22.8 0L0 0Z" fill="#fa7268"></path><path d="M0 65L22.8 69.5C45.7 74 91.3 83 137 83C182.7 83 228.3 74 274 75.5C319.7 77 365.3 89 411.2 90.7C457 92.3 503 83.7 548.8 81.7C594.7 79.7 640.3 84.3 686 86.2C731.7 88 777.3 87 823 85.7C868.7 84.3 914.3 82.7 937.2 81.8L960 81L960 0L937.2 0C914.3 0 868.7 0 823 0C777.3 0 731.7 0 686 0C640.3 0 594.7 0 548.8 0C503 0 457 0 411.2 0C365.3 0 319.7 0 274 0C228.3 0 182.7 0 137 0C91.3 0 45.7 0 22.8 0L0 0Z" fill="#ef5f67"></path><path d="M0 69L22.8 68.3C45.7 67.7 91.3 66.3 137 64.3C182.7 62.3 228.3 59.7 274 58C319.7 56.3 365.3 55.7 411.2 54.5C457 53.3 503 51.7 548.8 54C594.7 56.3 640.3 62.7 686 63.8C731.7 65 777.3 61 823 58.3C868.7 55.7 914.3 54.3 937.2 53.7L960 53L960 0L937.2 0C914.3 0 868.7 0 823 0C777.3 0 731.7 0 686 0C640.3 0 594.7 0 548.8 0C503 0 457 0 411.2 0C365.3 0 319.7 0 274 0C228.3 0 182.7 0 137 0C91.3 0 45.7 0 22.8 0L0 0Z" fill="#e34c67"></path><path d="M0 54L22.8 53.2C45.7 52.3 91.3 50.7 137 50.5C182.7 50.3 228.3 51.7 274 49.2C319.7 46.7 365.3 40.3 411.2 37.2C457 34 503 34 548.8 36.7C594.7 39.3 640.3 44.7 686 47.3C731.7 50 777.3 50 823 49C868.7 48 914.3 46 937.2 45L960 44L960 0L937.2 0C914.3 0 868.7 0 823 0C777.3 0 731.7 0 686 0C640.3 0 594.7 0 548.8 0C503 0 457 0 411.2 0C365.3 0 319.7 0 274 0C228.3 0 182.7 0 137 0C91.3 0 45.7 0 22.8 0L0 0Z" fill="#d53867"></path><path d="M0 13L22.8 16.2C45.7 19.3 91.3 25.7 137 26C182.7 26.3 228.3 20.7 274 18.5C319.7 16.3 365.3 17.7 411.2 18C457 18.3 503 17.7 548.8 20C594.7 22.3 640.3 27.7 686 28C731.7 28.3 777.3 23.7 823 21.8C868.7 20 914.3 21 937.2 21.5L960 22L960 0L937.2 0C914.3 0 868.7 0 823 0C777.3 0 731.7 0 686 0C640.3 0 594.7 0 548.8 0C503 0 457 0 411.2 0C365.3 0 319.7 0 274 0C228.3 0 182.7 0 137 0C91.3 0 45.7 0 22.8 0L0 0Z" fill="#c62368"></path></svg>